<svg width="18" height="17" viewBox="0 0 18 17" fill="none" xmlns="http://www.w3.org/2000/svg">
<path fill-rule="evenodd" clip-rule="evenodd" d="M11.0381 0.290588C11.1859 0.239853 11.3459 0.236578 11.4957 0.281222C11.6455 0.325865 11.7776 0.416196 11.8736 0.539588L17.1236 7.28959C17.226 7.42125 17.2816 7.58329 17.2816 7.75009C17.2816 7.91689 17.226 8.07893 17.1236 8.21059L11.8736 14.9606C11.7776 15.0839 11.6455 15.1741 11.4958 15.2186C11.346 15.2632 11.1861 15.2599 11.0383 15.2092C10.8906 15.1585 10.7623 15.0629 10.6715 14.9357C10.5807 14.8086 10.5319 14.6563 10.5318 14.5001V11.5076C6.49756 11.5916 4.55956 12.3573 3.58606 13.1898C2.66056 13.9811 2.49106 14.9118 2.31481 15.8868L2.26906 16.1381C2.2354 16.3179 2.13721 16.4792 1.99295 16.5916C1.8487 16.704 1.66832 16.7599 1.48576 16.7487C1.3032 16.7374 1.13105 16.6599 1.00168 16.5306C0.87231 16.4013 0.794649 16.2291 0.783308 16.0466C0.654308 13.9856 0.847808 10.9991 2.30356 8.50084C3.71656 6.07609 6.26056 4.21159 10.5318 4.01659V1.00009C10.5318 0.843826 10.5805 0.691451 10.6713 0.56425C10.7621 0.437049 10.8903 0.341373 11.0381 0.290588Z" fill="#4B4B4E"/>
</svg>
