<svg width="212" height="56" viewBox="0 0 212 56" fill="none" xmlns="http://www.w3.org/2000/svg">
<rect width="212" height="56" fill="url(#paint0_linear_384_494)"/>
<path d="M34.9 13H40.9L47.9 29.8L48.62 31.56L48.94 32.4H49.1L48.98 31.56C48.9267 31.24 48.9 30.6533 48.9 29.8V13H54.5V41H48.5L41.5 24.2L40.78 22.44L40.46 21.6H40.3L40.38 22.44C40.46 23.48 40.5 24.0667 40.5 24.2V41H34.9V13ZM58.5063 41L66.7063 13H73.1063L81.3063 41H75.7063L73.9063 34.6H65.9063L64.1063 41H58.5063ZM72.9063 31L70.5063 22.6C70.4263 22.3067 70.3463 21.96 70.2663 21.56C70.1863 21.1333 70.1329 20.8267 70.1063 20.64L69.9863 19.6H69.8263L69.6662 20.64C69.6129 20.88 69.5463 21.2133 69.4663 21.64C69.4129 22.04 69.3596 22.36 69.3063 22.6L66.9063 31H72.9063ZM85.2906 41V13H90.8906V41H85.2906Z" fill="white"/>
<path d="M97.6734 13H105.273C108.98 13 111.7 13.76 113.433 15.28C115.193 16.8 116.073 19.04 116.073 22C116.073 24.7467 115.207 26.9067 113.473 28.48C112.7 29.1733 111.833 29.68 110.873 30L117.673 41H111.273L105.473 31H103.273V41H97.6734V13ZM105.273 27.4C107.113 27.4 108.433 26.9867 109.233 26.16C110.06 25.3067 110.473 23.92 110.473 22C110.473 20.08 110.06 18.7067 109.233 17.88C108.433 17.0267 107.113 16.6 105.273 16.6H103.273V27.4H105.273ZM130.858 41.4C127.524 41.4 124.924 40.24 123.058 37.92C121.191 35.5733 120.258 31.9333 120.258 27C120.258 22.0667 121.191 18.44 123.058 16.12C124.924 13.7733 127.524 12.6 130.858 12.6C134.191 12.6 136.791 13.7733 138.658 16.12C140.524 18.44 141.458 22.0667 141.458 27C141.458 31.9333 140.524 35.5733 138.658 37.92C136.791 40.24 134.191 41.4 130.858 41.4ZM130.858 37.8C132.324 37.8 133.524 36.9733 134.458 35.32C135.391 33.6667 135.858 30.8933 135.858 27C135.858 23.1067 135.391 20.3333 134.458 18.68C133.524 17.0267 132.324 16.2 130.858 16.2C129.391 16.2 128.191 17.0267 127.258 18.68C126.324 20.3333 125.858 23.1067 125.858 27C125.858 30.8933 126.324 33.6667 127.258 35.32C128.191 36.9733 129.391 37.8 130.858 37.8ZM146.853 13H155.253C158.426 13 160.813 13.6533 162.413 14.96C164.04 16.2667 164.853 18.0133 164.853 20.2C164.853 22.36 164.013 24.0133 162.333 25.16C161.586 25.6667 160.76 26.0133 159.853 26.2C160.946 26.3867 161.946 26.7733 162.853 27.36C163.706 27.92 164.413 28.68 164.973 29.64C165.56 30.6 165.853 31.7867 165.853 33.2C165.853 38.4 162.32 41 155.253 41H146.853V13ZM155.253 24.6C156.453 24.6 157.413 24.24 158.133 23.52C158.88 22.7733 159.253 21.8 159.253 20.6C159.253 19.4 158.88 18.44 158.133 17.72C157.413 16.9733 156.453 16.6 155.253 16.6H152.453V24.6H155.253ZM155.253 37.4C158.586 37.4 160.253 35.8667 160.253 32.8C160.253 29.7333 158.586 28.2 155.253 28.2H152.453V37.4H155.253ZM171.267 41V13H176.867V41H171.267Z" fill="#FF0404"/>
<defs>
<linearGradient id="paint0_linear_384_494" x1="-0.499999" y1="28.3944" x2="212.5" y2="28.3944" gradientUnits="userSpaceOnUse">
<stop stop-color="#FF0404"/>
<stop offset="0.687864" stop-opacity="0"/>
</linearGradient>
</defs>
</svg>
