<svg width="1001" height="405" viewBox="0 0 1001 405" fill="none" xmlns="http://www.w3.org/2000/svg">
<path d="M106.592 83.0205H308.741V0H6.16573V240.759H113.071C116.095 230.797 122.358 222.864 131.861 216.96C141.364 210.688 153.458 207.551 168.144 207.551C188.014 207.551 203.131 212.348 213.498 221.941C223.865 231.535 229.048 245.372 229.048 263.452C229.048 281.111 224.497 295.39 215.394 306.288L241.706 311.001L282.868 296.916L324.43 206.531C323.376 204.079 322.25 201.652 321.052 199.249C311.117 179.324 295.351 163.089 273.754 150.544C252.589 137.998 225.808 131.726 193.413 131.726C175.271 131.726 158.425 134.309 142.876 139.474C127.326 144.64 115.231 151.282 106.592 159.399V83.0205Z" fill="white"/>
<path d="M335.848 258.175L313.036 311.344L246.552 337.787L187.759 327.956L138.618 339.959L93.6377 385.465L47.7566 370.503C57.8177 377.919 69.4387 384.299 82.6195 389.643C108.104 399.605 138.124 404.586 172.68 404.586C224.513 404.586 264.683 392.041 293.191 366.95C321.7 341.491 335.954 307.176 335.954 264.005C335.954 262.05 335.919 260.106 335.848 258.175Z" fill="white"/>
<path d="M10.8828 325.806L83.361 349.675L112.731 317.682L128.659 313.763C128.428 313.598 128.2 313.432 127.973 313.264C118.039 305.515 111.776 295.922 109.184 284.483H0.982422C1.7985 299.355 5.09862 313.13 10.8828 325.806Z" fill="white"/>
<path d="M362.18 196.79C362.163 198.433 362.154 200.086 362.154 201.748C362.154 264.999 374.145 314.618 398.126 350.605C422.471 386.593 461.531 404.586 515.307 404.586C569.084 404.586 607.962 386.593 631.944 350.605C645.706 330.261 655.578 305.561 661.56 276.504L650.172 294.515L575.777 236.096C575.05 246.203 573.97 255.292 572.535 263.363C569.629 279.357 563.633 292.444 554.549 302.622C545.829 312.437 532.748 317.344 515.307 317.344C497.867 317.344 484.604 312.437 475.52 302.622C466.8 292.444 460.986 279.357 458.079 263.363C455.685 249.89 454.277 233.581 453.855 214.436L419.984 188.211L371.179 175.815L362.18 196.79Z" fill="white"/>
<path d="M364.672 154.913L429.886 169.414L453.885 189.142C454.715 158.522 458.657 134.552 465.71 117.232C473.704 97.2389 490.236 87.2424 515.307 87.2424C540.379 87.2424 556.911 97.2389 564.905 117.232C572.899 136.861 576.896 165.033 576.896 201.748C576.896 207.48 576.818 212.988 576.661 218.271L645.85 270.625L666.74 241.015C667.887 228.568 668.461 215.479 668.461 201.748C668.461 139.224 656.288 89.9687 631.944 53.9812C607.962 17.9937 569.084 0 515.307 0C461.531 0 422.471 17.9937 398.126 53.9812C380.489 80.4485 369.337 114.092 364.672 154.913Z" fill="white"/>
<path d="M730.665 53.9812C706.684 89.9687 694.693 139.224 694.693 201.748C694.693 205.716 694.74 209.631 694.835 213.492L730.183 195.729L766.383 148.965L799.047 82.655L855.411 58.0538L999.653 167.2C995.876 120.799 984.153 83.0588 964.483 53.9812C940.501 17.9937 901.623 0 847.846 0C794.07 0 755.01 17.9937 730.665 53.9812Z" fill="white"/>
<path fill-rule="evenodd" clip-rule="evenodd" d="M999.753 168.456L856.852 66.0171L807.156 85.4619L779.822 149.715L739.341 204.328L695.336 226.388C698.114 278.024 709.89 319.43 730.665 350.605C755.01 386.593 794.07 404.586 847.846 404.586C901.623 404.586 940.501 386.593 964.483 350.605C988.827 314.618 1001 264.999 1001 201.748C1001 190.198 1000.58 179.1 999.753 168.456ZM897.444 117.232C905.438 136.861 909.435 165.033 909.435 201.748C909.435 226.467 907.981 247.005 905.074 263.363C902.168 279.357 896.172 292.444 887.089 302.622C878.368 312.437 865.287 317.344 847.846 317.344C830.406 317.344 817.143 312.437 808.059 302.622C799.339 292.444 793.525 279.357 790.618 263.363C787.712 247.005 786.258 226.467 786.258 201.748C786.258 165.033 790.255 136.861 798.249 117.232C806.243 97.2389 822.775 87.2424 847.846 87.2424C872.918 87.2424 889.45 97.2389 897.444 117.232Z" fill="white"/>
</svg>
