<svg width="17" height="17" viewBox="0 0 17 17" fill="none" xmlns="http://www.w3.org/2000/svg">
<path d="M8.48712 0.5C4.28662 0.5 0.841125 3.7395 0.515625 7.857L4.80212 9.6305C5.17819 9.37401 5.62292 9.23704 6.07812 9.2375C6.11963 9.2375 6.16162 9.24 6.20312 9.24L8.10962 6.4795V6.4405C8.10962 4.7765 9.46112 3.425 11.1251 3.425C12.7891 3.425 14.1431 4.779 14.1431 6.443C14.1421 7.24287 13.8237 8.00964 13.2579 8.57499C12.692 9.14035 11.925 9.4581 11.1251 9.4585H11.0576L8.33862 11.3985C8.33862 11.435 8.34113 11.469 8.34113 11.5055C8.34113 12.7555 7.33063 13.7685 6.08063 13.7685C4.99213 13.7685 4.07012 12.987 3.85912 11.951L0.791625 10.68C1.74213 14.0395 4.82312 16.5005 8.48712 16.5005C12.9036 16.5005 16.4846 12.92 16.4846 8.5005C16.4846 4.081 12.9041 0.5005 8.48712 0.5005V0.5ZM5.52612 12.6405L4.54413 12.234C4.72497 12.6097 5.03712 12.9062 5.42163 13.0675C5.83782 13.2398 6.30535 13.2401 6.72176 13.0683C7.13817 12.8965 7.46949 12.5666 7.64313 12.151C7.72927 11.9453 7.77384 11.7245 7.77427 11.5015C7.7747 11.2785 7.73098 11.0576 7.64563 10.8515C7.56143 10.6444 7.43673 10.4561 7.27884 10.2978C7.12094 10.1395 6.93303 10.0143 6.72612 9.9295C6.32746 9.76298 5.88016 9.75546 5.47612 9.9085L6.48912 10.328C7.12712 10.596 7.42912 11.328 7.16362 11.966C6.89812 12.604 6.16362 12.906 5.52562 12.6405H5.52612ZM13.1356 6.4375C13.1351 5.90488 12.9235 5.39418 12.5471 5.01733C12.1707 4.64047 11.6602 4.42819 11.1276 4.427C10.5944 4.427 10.083 4.63882 9.70599 5.01586C9.32895 5.3929 9.11712 5.90428 9.11712 6.4375C9.11712 6.97072 9.32895 7.4821 9.70599 7.85914C10.083 8.23618 10.5944 8.448 11.1276 8.448C11.6604 8.44721 12.171 8.23505 12.5475 7.85811C12.924 7.48117 13.1355 6.97024 13.1356 6.4375ZM9.62263 6.435C9.62263 5.599 10.2971 4.9245 11.1306 4.9245C11.9641 4.9245 12.6436 5.599 12.6436 6.435C12.6436 7.2685 11.9641 7.9455 11.1306 7.9455C10.2971 7.9455 9.62263 7.2685 9.62263 6.435Z" fill="#0F2A80"/>
</svg>
