<svg width="13" height="13" viewBox="0 0 13 13" fill="none" xmlns="http://www.w3.org/2000/svg">
<path d="M2 0.500003C1.5285 0.500003 1.042 0.677503 0.656 1.015C0.271 1.354 0 1.875 0 2.5C0 3.031 0.223 3.485 0.5 3.844C0.777 4.202 1.113 4.4865 1.422 4.7655C2.04 5.324 2.5 5.7825 2.5 6.5C2.5 6.576 2.425 6.76 2.328 6.9065C2.231 7.0515 2.1405 7.1405 2.1405 7.1405L2.8605 7.844C2.8605 7.844 3.0195 7.683 3.1725 7.454C3.3025 7.257 3.445 7.0015 3.485 6.6725C3.5415 6.8335 3.595 7.001 3.656 7.1565C4.001 8.044 4.396 8.839 4.844 9.438C5.0065 9.656 5.174 9.85 5.359 10.016C4.3265 10.09 3.5 10.95 3.5 12V12.5H9.5V12C9.5 10.9385 8.6575 10.0735 7.61 10.015C7.80583 9.84101 7.98341 9.64751 8.14 9.4375C8.59 8.8405 8.981 8.0425 9.328 7.156C9.393 6.99 9.4545 6.8125 9.5155 6.641C9.5505 6.9845 9.694 7.251 9.8285 7.453C9.9815 7.683 10.141 7.844 10.141 7.844L10.861 7.1405C10.861 7.1405 10.77 7.0525 10.673 6.9065C10.5755 6.7615 10.501 6.5765 10.501 6.5005C10.501 5.7825 10.961 5.324 11.579 4.7655C11.888 4.487 12.224 4.2025 12.501 3.8445C12.778 3.486 13.001 3.0315 13.001 2.5005C13.001 1.8745 12.731 1.354 12.3445 1.0155C11.9729 0.687609 11.4956 0.504598 11 0.500003C10.5158 0.499143 10.0484 0.677211 9.6875 1H3.3125C2.95161 0.677211 2.48418 0.499143 2 0.500003ZM2 1.5C2.237 1.5 2.389 1.575 2.5 1.64C2.514 2.66 2.69 3.817 2.969 4.953C2.703 4.593 2.37 4.295 2.078 4.031C1.762 3.746 1.473 3.483 1.2815 3.2345C1.089 2.985 1 2.771 1 2.5C1 2.151 1.136 1.934 1.328 1.765C1.52 1.598 1.783 1.5 2 1.5ZM11 1.5C11.217 1.5 11.48 1.5975 11.672 1.765C11.864 1.934 12 2.151 12 2.5C12 2.7715 11.91 2.986 11.7185 3.235C11.527 3.483 11.2385 3.745 10.922 4.031C10.622 4.301 10.285 4.6125 10.0155 4.9845C10.3035 3.8395 10.4855 2.6745 10.5005 1.6395C10.6115 1.5745 10.7635 1.4995 11.0005 1.4995L11 1.5ZM3.5625 2H9.4375C9.361 3.486 8.9775 5.299 8.3905 6.797C8.067 7.6255 7.692 8.3445 7.3285 8.828C6.965 9.3115 6.632 9.5 6.485 9.5C6.3375 9.5 6.0185 9.313 5.656 8.828C5.294 8.343 4.916 7.6265 4.594 6.797C4.011 5.297 3.639 3.4785 3.5625 2ZM6 3.5V6H7V3.5H6ZM5.5 11H7.5C7.8585 11 8.105 11.2215 8.2815 11.5H4.719C4.895 11.2215 5.1415 11 5.5 11Z" fill="#FF8A00"/>
</svg>
